<?xml version="1.0" encoding="UTF-8" standalone="no"?>
<!-- Created with Inkscape (http://www.inkscape.org/) -->

<svg
   xmlns:dc="http://purl.org/dc/elements/1.1/"
   xmlns:cc="http://creativecommons.org/ns#"
   xmlns:rdf="http://www.w3.org/1999/02/22-rdf-syntax-ns#"
   xmlns:svg="http://www.w3.org/2000/svg"
   xmlns="http://www.w3.org/2000/svg"
   xmlns:sodipodi="http://sodipodi.sourceforge.net/DTD/sodipodi-0.dtd"
   xmlns:inkscape="http://www.inkscape.org/namespaces/inkscape"
   width="338.754mm"
   height="35.255001mm"
   viewBox="0 0 338.754 35.255001"
   version="1.1"
   id="svg4653"
   sodipodi:docname="summerade-middle.svg"
   inkscape:version="0.92.1 unknown">
  <defs
     id="defs4647" />
  <sodipodi:namedview
     id="base"
     pagecolor="#ffffff"
     bordercolor="#666666"
     borderopacity="1.0"
     inkscape:pageopacity="0.0"
     inkscape:pageshadow="2"
     inkscape:zoom="0.41152344"
     inkscape:cx="330.29412"
     inkscape:cy="205.14343"
     inkscape:document-units="mm"
     inkscape:current-layer="layer1"
     showgrid="false"
     inkscape:window-width="1319"
     inkscape:window-height="744"
     inkscape:window-x="47"
     inkscape:window-y="24"
     inkscape:window-maximized="1" />
  <metadata
     id="metadata4650">
    <rdf:RDF>
      <cc:Work
         rdf:about="">
        <dc:format>image/svg+xml</dc:format>
        <dc:type
           rdf:resource="http://purl.org/dc/dcmitype/StillImage" />
        <dc:title></dc:title>
      </cc:Work>
    </rdf:RDF>
  </metadata>
  <g
     inkscape:label="Layer 1"
     inkscape:groupmode="layer"
     id="layer1"
     transform="translate(0,-261.745)">
    <g
       id="g5124"
       transform="matrix(-1,0,0,1,338.83359,0)"
       style="fill:#ffffff">
      <path
         id="path4555"
         transform="matrix(0.26458333,0,0,0.26458333,0,261.745)"
         d="M 44.447266,0 C 16.756914,0.02307256 0,1.2011719 0,1.2011719 V 133.24805 H 1280.3027 V 65.587891 C 1263.1742,121.1916 574.25132,154.16931 373.80078,61.333984 257.38551,7.418145 115.2115,-0.0589632 44.447266,0 Z M 1280.3027,65.587891 c 0.4325,-1.40382 0.4427,-2.822904 0,-4.253907 z"
         style="opacity:0.6;fill:#ffffff;stroke:none;stroke-width:0.82053471px;stroke-linecap:butt;stroke-linejoin:miter;stroke-opacity:1"
         inkscape:connector-curvature="0" />
      <path
         id="path4557"
         transform="matrix(0.26458333,0,0,0.26458333,0,261.745)"
         d="M 0,21.421875 V 133.24805 h 1280.3301 v 17.4375 h 0.2773 V 97.322266 c 0,0 -153.5697,-66.992509 -329.18357,-66.222657 -69.16589,-0.03817 -128.33555,14.40155 -190.5586,24.597657 C 406.90284,113.48469 267.62423,66.019318 0,21.421875 Z"
         style="opacity:0.6;fill:#ffffff;stroke:none;stroke-width:0.64150095px;stroke-linecap:butt;stroke-linejoin:miter;stroke-opacity:1"
         inkscape:connector-curvature="0" />
    </g>
  </g>
</svg>
